v 0.148188 1.98095 -1.22294
vn 0.213623 0.623024 0.752467
vt 0.786852 1
v -0.0867569 1.98095 -1.15624
vn 0.138645 0.615709 0.77568
vt 0.316962 1
v -0.181369 1.22978 -0.576845
vn -0.0781133 0.47213 0.878061
vt 0.127738 0.624412
v -0.104784 -0.0190476 -0.0388462
vn -0.28623 0.364238 0.88623
vt 0.280909 0
v 0.0348971 -0.0190476 0.00626722
vn -0.147989 0.397266 0.905693
vt 0.56027 0
v 0.193257 1.12021 -0.523053
vn 0.0908642 0.555745 0.826372
vt 0.87699 0.569627
f 6/6/6 1/1/1 2/2/2
f 6/6/6 2/2/2 3/3/3
f 3/3/3 4/4/4 5/5/5
f 3/3/3 5/5/5 6/6/6
